<svg xmlns="http://www.w3.org/2000/svg" width="512" height="512" viewBox="0 0 512 512">
  <defs>
    <linearGradient id="flameGrad" x1="0.5" y1="1" x2="0.5" y2="0">
      <stop offset="0%" stop-color="#dc2626"/>
      <stop offset="30%" stop-color="#ea580c"/>
      <stop offset="65%" stop-color="#f59e0b"/>
      <stop offset="100%" stop-color="#fbbf24"/>
    </linearGradient>
    <linearGradient id="innerFlame" x1="0.5" y1="1" x2="0.5" y2="0">
      <stop offset="0%" stop-color="#f59e0b"/>
      <stop offset="60%" stop-color="#fde68a"/>
      <stop offset="100%" stop-color="#fefce8"/>
    </linearGradient>
    <filter id="glow" x="-40%" y="-40%" width="180%" height="180%">
      <feGaussianBlur in="SourceGraphic" stdDeviation="8" result="blur"/>
      <feColorMatrix in="blur" type="matrix" values="1 0 0 0 0  0.6 0 0 0 0  0 0 0 0 0  0 0 0 0.5 0" result="glowColor"/>
      <feMerge>
        <feMergeNode in="glowColor"/>
        <feMergeNode in="SourceGraphic"/>
      </feMerge>
    </filter>
    <filter id="innerGlow" x="-20%" y="-20%" width="140%" height="140%">
      <feGaussianBlur in="SourceGraphic" stdDeviation="2.5" result="blur"/>
      <feMerge>
        <feMergeNode in="blur"/>
        <feMergeNode in="SourceGraphic"/>
      </feMerge>
    </filter>
  </defs>
  <!-- FULL SQUARE background for maskable icon -->
  <rect x="0" y="0" width="512" height="512" fill="#181511"/>
  <!-- Flame group - scaled down to fit within the 80% safe zone (inner ~410px area) -->
  <!-- Safe zone center: 256,256 with radius ~205px. Flame is scaled to ~0.72x of the 512 version -->
  <g filter="url(#glow)" transform="translate(256,270) scale(0.72)">
    <!-- Main outer flame shape -->
    <path d="
      M0,-140
      C6,-130 16,-112 28,-90
      C44,-62 62,-30 70,-2
      C78,28 74,54 64,72
      C54,90 42,104 30,116
      C20,126 10,132 4,136
      C2,137 0,138 0,138
      C0,138 -2,137 -4,136
      C-10,132 -20,126 -30,116
      C-42,104 -54,90 -64,72
      C-74,54 -78,28 -70,-2
      C-62,-30 -44,-62 -28,-90
      C-16,-112 -6,-130 0,-140Z
    " fill="url(#flameGrad)"/>
    <!-- Right dancing tendril -->
    <path d="
      M16,-100
      C30,-76 50,-42 56,-10
      C60,12 54,38 44,56
      C36,70 26,82 16,90
      C24,76 34,58 38,40
      C42,22 40,2 34,-18
      C28,-36 20,-70 16,-100Z
    " fill="#fbbf24" opacity="0.45"/>
    <!-- Left dancing tendril -->
    <path d="
      M-16,-100
      C-30,-76 -50,-42 -56,-10
      C-60,12 -54,38 -44,56
      C-36,70 -26,82 -16,90
      C-24,76 -34,58 -38,40
      C-42,22 -40,2 -34,-18
      C-28,-36 -20,-70 -16,-100Z
    " fill="#fbbf24" opacity="0.35"/>
    <!-- Midtone layer -->
    <path d="
      M0,-90
      C5,-80 18,-56 28,-32
      C40,-4 46,20 42,40
      C38,58 28,74 18,86
      C10,96 4,102 0,104
      C-4,102 -10,96 -18,86
      C-28,74 -38,58 -42,40
      C-46,20 -40,-4 -28,-32
      C-18,-56 -5,-80 0,-90Z
    " fill="#f59e0b" opacity="0.6"/>
    <!-- Inner bright core flame -->
    <path d="
      M0,-56
      C4,-48 14,-30 20,-10
      C26,8 28,26 24,40
      C20,54 14,66 8,76
      C4,84 2,90 0,92
      C-2,90 -4,84 -8,76
      C-14,66 -20,54 -24,40
      C-28,26 -26,8 -20,-10
      C-14,-30 -4,-48 0,-56Z
    " fill="url(#innerFlame)" filter="url(#innerGlow)"/>
    <!-- Hottest center core -->
    <ellipse cx="0" cy="40" rx="10" ry="24" fill="#fef3c7" opacity="0.75"/>
    <!-- Tiny bright spark at top -->
    <ellipse cx="0" cy="-44" rx="3" ry="6" fill="#fde68a" opacity="0.5"/>
  </g>
</svg>
