<svg xmlns="http://www.w3.org/2000/svg" width="192" height="192" viewBox="0 0 192 192">
  <defs>
    <linearGradient id="flameGrad" x1="0.5" y1="1" x2="0.5" y2="0">
      <stop offset="0%" stop-color="#dc2626"/>
      <stop offset="35%" stop-color="#ea580c"/>
      <stop offset="70%" stop-color="#f59e0b"/>
      <stop offset="100%" stop-color="#fbbf24"/>
    </linearGradient>
    <linearGradient id="innerFlame" x1="0.5" y1="1" x2="0.5" y2="0">
      <stop offset="0%" stop-color="#f59e0b"/>
      <stop offset="100%" stop-color="#fde68a"/>
    </linearGradient>
    <filter id="glow" x="-30%" y="-30%" width="160%" height="160%">
      <feGaussianBlur in="SourceGraphic" stdDeviation="4" result="blur"/>
      <feColorMatrix in="blur" type="matrix" values="1 0 0 0 0  0.6 0 0 0 0  0 0 0 0 0  0 0 0 0.6 0" result="glowColor"/>
      <feMerge>
        <feMergeNode in="glowColor"/>
        <feMergeNode in="SourceGraphic"/>
      </feMerge>
    </filter>
  </defs>
  <!-- Dark circular background -->
  <circle cx="96" cy="96" r="96" fill="#181511"/>
  <!-- Subtle ring -->
  <circle cx="96" cy="96" r="88" fill="none" stroke="#2a2520" stroke-width="1"/>
  <!-- Flame with glow -->
  <g filter="url(#glow)" transform="translate(96,100)">
    <!-- Main outer flame -->
    <path d="M0,-52 C8,-44 22,-28 26,-12 C30,4 24,18 20,26 C16,34 12,40 8,44 C4,48 2,50 0,50 C-2,50 -4,48 -8,44 C-12,40 -16,34 -20,26 C-24,18 -30,4 -26,-12 C-22,-28 -8,-44 0,-52Z" fill="url(#flameGrad)"/>
    <!-- Right flicker -->
    <path d="M6,-36 C14,-24 22,-10 20,4 C18,14 12,24 6,30 C10,22 14,12 14,2 C14,-10 8,-26 6,-36Z" fill="#fbbf24" opacity="0.5"/>
    <!-- Left flicker -->
    <path d="M-6,-36 C-14,-24 -22,-10 -20,4 C-18,14 -12,24 -6,30 C-10,22 -14,12 -14,2 C-14,-10 -8,-26 -6,-36Z" fill="#fbbf24" opacity="0.4"/>
    <!-- Inner bright core -->
    <path d="M0,-20 C5,-14 12,-4 12,6 C12,14 8,22 4,28 C2,32 0,34 0,34 C0,34 -2,32 -4,28 C-8,22 -12,14 -12,6 C-12,-4 -5,-14 0,-20Z" fill="url(#innerFlame)"/>
    <!-- Hot center -->
    <ellipse cx="0" cy="16" rx="4" ry="8" fill="#fef3c7" opacity="0.7"/>
  </g>
</svg>
